<svg xmlns="http://www.w3.org/2000/svg" baseProfile="tiny" version="1.2" viewBox="0 0 219 224"><path fill="#fff" d="m174.74.3 10.29 40.25a.31.31 0 0 1-.3.39l-166.56-.01a.31.31 0 0 1-.08-.61L174.36.08a.31.31 0 0 1 .38.22ZM0 114.91v-5.96c2.2-35.02 32.15-59.68 66.76-56.97q12.39.96 22.63 6.36c8.97 4.74 5.04 19.54-4.91 18.78q-1.38-.11-6.48-2.09c-22.16-8.64-46.52.96-54.16 23.7-5.68 16.9-.16 35.02 14.13 46.01 11.7 9 27.87 8.82 41.4 4.65a1.19 1.18-8.7 0 0 .84-1.13l.01-20a.9.89-.3 0 0-.91-.89q-7.74.08-15.81-.02c-10.27-.13-12.63-15.72-3.07-19.32q1.87-.7 6.29-.72 10.79-.03 21.58-.02 6.16.01 8.66 1.39c4.39 2.44 4.97 6.46 4.97 11.55q-.01 16.26 0 32.53c.01 5.16-2.96 7.97-7.46 10.53-29.15 16.57-65.55 9.96-84.64-18.39Q.9 131.63 0 114.91ZM142.8 128.57q-.07 14.54-.02 29.1.02 5.76-1.36 8.46c-3.48 6.82-14.55 5.21-18.17-1.14q-1.27-2.21-1.27-6.72-.01-46.13.01-92.25c0-9.65 3.83-12.56 12.97-12.56q23.77.02 47.54.03 1.38 0 4.52.73c19.41 4.5 30.84 26.23 24.49 44.96q-3.57 10.52-13.69 19.03-.44.36.02.7c10.82 7.97 10.33 17.51 12.16 30.09.39 2.7 1.5 3.75 3.91 5.41 6.76 4.67 5.33 15.23-3.39 16.31-9.4 1.17-16.8-6.68-19.53-14.97q-1.9-5.8-1.93-13.79c-.03-8.48-4.58-13.79-13.56-13.94q-16.06-.27-32.14-.01-.55.01-.56.56Zm.01-54.92-.06 35.96a1.11 1.11 0 0 0 1.11 1.11l33.28.06a17.39 14.41-89.9 0 0 14.44-17.37v-3.4A17.39 14.41-89.9 0 0 177.2 72.6l-33.28-.06a1.11 1.11 0 0 0-1.11 1.11ZM201.51 183.08l-158.47 40.8q-.45.12-.56-.33l-10.33-40.39q-.15-.56.44-.56l168.88-.01q1.91 0 .04.49Z"/></svg>